Genre:Action | Comedy | Family 
Language:English
IMDb:http://www.imdb.com/title/tt1287468/
Source video:Relizlab
Source audio:TA 
...........................................
General
Complete name : Cats.And.Dogs.2.2010.TS.XVID.FEEL-FREE
Format : AVI
Format/Info : Audio Video Interleave
File size : 1.08 GiB
Duration : 1h 13mn
Overall bit rate : 2 086 Kbps
Writing library : VirtualDub build 32817/release
...........................................
Video
ID : 0
Format : MPEG-4 Visual
Format profile : AdvancedSimple@L5
Format settings, BVOP : Yes
Format settings, QPel : No
Format settings, GMC : No warppoints
Format settings, Matrix : Custom
Codec ID : XVID
Codec ID/Hint : XviD
Duration : 1h 13mn
Bit rate : 1 885 Kbps
Width : 652 pixels
Height : 352 pixels
Display aspect ratio : 1.852
Frame rate : 25.000 fps
Resolution : 24 bits
Colorimetry : 4:2:0
Scan type : Progressive
Bits/(Pixel*Frame) : 0.328
Stream size : 997 MiB (90%)
Writing library : XviD 1.2.1 (UTC 2008-12-04)
............................................
Audio
ID : 1
Format : MPEG Audio
Format version : Version 1
Format profile : Layer 3
Codec ID : 55
Codec ID/Hint : MP3
Duration : 1h 13mn
Bit rate mode : Constant
Bit rate : 192 Kbps
Channel(s) : 2 channels
Sampling rate : 48.0 KHz
Resolution : 16 bits
Video delay : 16ms
Stream size : 102 MiB (9%)
Alignment : Split accross interleaves
Interleave, duration : 40 ms (1.00 video frame)
Interleave, preload duration : 500 ms
.............................................
Plot:
The ongoing war between the canine and feline species is put on hold when they join forces to thwart a rogue cat spy with her own sinister plans for conquest
...................................................


Screens:
 
http://www.starshare.ro/bitbucket/Cats.And.Dogs.2.2010.TS.XVID.FEEL-FREE.avi_thumbs_%5B2010.08.07_06.20.18%5D.jpg



